<?xml version="1.0" encoding="utf-8"?>
<svg xmlns="http://www.w3.org/2000/svg" version="1.1" viewBox="0 0 1400 440">
	<title>The titlepage for the Standard Ebooks edition of Looking Backward 2000-1887, by Edward Bellamy</title>
	<g aria-label="LOOKING BACKWARD">
		<path d="M149.42,52.81l0.00,61.75l26.57,0.00l0.00,15.44l-44.16,0.00l0.00-77.19l17.59,0.00z"/>
		<path d="M186.24,91.36c0.00-22.55,17.68-39.95,38.92-39.95c21.43,0.00,38.83,17.40,38.83,39.95s-16.65,40.05-38.83,40.05c-22.83,0.00-38.92-17.50-38.92-40.05z  M205.23,91.36c0.00,11.51,5.52,23.02,19.93,23.02c14.04,0.00,19.84-11.51,19.84-23.02s-6.18-23.02-19.84-23.02c-13.57,0.00-19.93,11.51-19.93,23.02z"/>
		<path d="M273.30,91.36c0.00-22.55,17.68-39.95,38.92-39.95c21.43,0.00,38.83,17.40,38.83,39.95s-16.65,40.05-38.83,40.05c-22.83,0.00-38.92-17.50-38.92-40.05z  M292.29,91.36c0.00,11.51,5.52,23.02,19.93,23.02c14.04,0.00,19.84-11.51,19.84-23.02s-6.18-23.02-19.84-23.02c-13.57,0.00-19.93,11.51-19.93,23.02z"/>
		<path d="M434.08,130.00l-24.23,0.00l-28.44-32.75l0.00,32.75l-17.59,0.00l0.00-77.19l17.59,0.00l0.00,31.53l26.48-31.53l21.33,0.00l-31.06,36.58z"/>
		<path d="M460.04,52.81l0.00,77.19l-17.59,0.00l0.00-77.19l17.59,0.00z"/>
		<path d="M493.86,82.09l0.00,47.91l-17.59,0.00l0.00-77.19l17.59,0.00l30.69,47.91l0.19,0.00l0.00-47.91l17.59,0.00l0.00,77.19l-17.59,0.00l-30.69-47.91l-0.19,0.00z"/>
		<path d="M628.36,86.77l0.00,16.75c-4.21,19.56-20.49,27.88-35.65,27.88c-20.77,0.00-37.61-17.87-37.61-39.95c0.00-22.18,15.91-40.05,37.61-40.05c13.57,0.00,23.02,5.05,29.75,13.19l-11.51,12.63c-4.49-7.20-10.39-9.92-17.22-9.92c-10.85,0.00-19.65,10.76-19.65,24.14c0.00,13.10,8.80,23.77,19.65,23.77c8.42,0.00,16.75-5.43,16.75-14.88l-17.78,0.00l0.00-13.57l35.65,0.00z"/>
		<path d="M671.67,52.81l23.95,0.00c13.29,0.00,23.77,4.96,23.77,19.65c0.00,7.11-3.09,13.19-9.64,16.56c9.64,1.68,16.47,7.02,16.47,19.46c0.00,12.73-9.26,21.52-25.26,21.52l-29.29,0.00l0.00-77.19z  M689.26,83.03l1.40,0.00c7.58,0.00,11.70-2.34,11.70-8.80c0.00-5.52-4.02-7.86-11.70-7.86l-1.40,0.00l0.00,16.65z  M689.26,116.43l5.52,0.00c8.33,0.00,12.91-2.53,12.91-8.61c0.00-7.11-4.58-9.64-12.91-9.64l-5.52,0.00l0.00,18.25z"/>
		<path d="M776.32,52.81l31.16,77.19l-18.90,0.00l-5.71-15.44l-29.38,0.00l-5.71,15.44l-18.90,0.00l31.16-77.19l16.28,0.00z  M776.88,99.12l-8.61-22.46l-0.19,0.00l-8.61,22.46l17.40,0.00z"/>
		<path d="M853.55,114.09c8.98,0.00,15.16-4.77,15.16-4.77l7.49,14.97s-8.61,7.11-25.36,7.11c-21.80,0.00-41.82-17.78-41.82-39.86c0.00-22.18,19.93-40.14,41.82-40.14c16.75,0.00,25.36,7.11,25.36,7.11l-7.49,14.97s-6.18-4.77-15.16-4.77c-17.68,0.00-25.45,12.35-25.45,22.64c0.00,10.39,7.77,22.74,25.45,22.74z"/>
		<path d="M958.20,130.00l-24.23,0.00l-28.44-32.75l0.00,32.75l-17.59,0.00l0.00-77.19l17.59,0.00l0.00,31.53l26.48-31.53l21.33,0.00l-31.06,36.58z"/>
		<path d="M1017.85,130.00l-12.35-43.32l-12.35,43.32l-19.56,0.00l-21.99-77.19l19.56,0.00l13.19,52.96l0.47,0.00l14.04-52.96l13.29,0.00l14.04,52.96l0.47,0.00l13.19-52.96l19.46,0.00l-21.99,77.19l-19.46,0.00z"/>
		<path d="M1099.20,52.81l31.16,77.19l-18.90,0.00l-5.71-15.44l-29.38,0.00l-5.71,15.44l-18.90,0.00l31.16-77.19l16.28,0.00z  M1099.76,99.12l-8.61-22.46l-0.19,0.00l-8.61,22.46l17.40,0.00z"/>
		<path d="M1138.35,52.81l27.60,0.00c14.32,0.00,25.17,7.77,25.17,22.92c0.00,11.60-6.36,19.37-15.81,22.36l26.57,31.91l-22.36,0.00l-23.58-30.50l0.00,30.50l-17.59,0.00l0.00-77.19z  M1155.94,87.05l2.06,0.00c6.64,0.00,14.60-0.47,14.60-10.11s-7.95-10.11-14.60-10.11l-2.06,0.00l0.00,20.21z"/>
		<path d="M1210.34,52.81l22.36,0.00c21.15,0.00,38.92,16.09,38.92,38.55c0.00,22.55-17.68,38.64-38.92,38.64l-22.36,0.00l0.00-77.19z  M1227.93,114.28l2.71,0.00c13.01,0.00,21.89-9.92,21.99-22.83c0.00-12.91-8.89-22.92-21.99-22.92l-2.71,0.00l0.00,45.75z"/>
	</g>
	<g aria-label="2000-1887">
		<path d="M440.23,166.28c-8.42,0.00-13.75,14.69-13.75,14.69l-14.69-7.11s7.49-22.46,28.44-22.46c26.48,0.00,29.94,17.40,29.94,27.13c0.00,18.06-27.23,36.02-27.23,36.02l28.63,0.00l0.00,15.44l-60.16,0.00l0.00-4.40s39.77-32.84,39.77-47.06c0.00-2.81-0.65-12.26-10.95-12.26z"/>
		<path d="M484.35,191.45c0.00-26.76,14.88-40.05,31.44-40.05s31.35,13.29,31.35,40.05c0.00,28.63-14.78,39.95-31.35,39.95s-31.44-11.32-31.44-39.95z  M502.12,191.45c0.00,16.65,5.15,24.51,13.66,24.51c8.42,0.00,13.57-7.86,13.57-24.51c0.00-15.63-5.15-24.61-13.57-24.61c-8.51,0.00-13.66,9.08-13.66,24.61z"/>
		<path d="M557.37,191.45c0.00-26.76,14.88-40.05,31.44-40.05s31.35,13.29,31.35,40.05c0.00,28.63-14.78,39.95-31.35,39.95s-31.44-11.32-31.44-39.95z  M575.15,191.45c0.00,16.65,5.15,24.51,13.66,24.51c8.42,0.00,13.57-7.86,13.57-24.51c0.00-15.63-5.15-24.61-13.57-24.61c-8.51,0.00-13.66,9.08-13.66,24.61z"/>
		<path d="M630.39,191.45c0.00-26.76,14.88-40.05,31.44-40.05s31.35,13.29,31.35,40.05c0.00,28.63-14.78,39.95-31.35,39.95s-31.44-11.32-31.44-39.95z  M648.17,191.45c0.00,16.65,5.15,24.51,13.66,24.51c8.42,0.00,13.57-7.86,13.57-24.51c0.00-15.63-5.15-24.61-13.57-24.61c-8.51,0.00-13.66,9.08-13.66,24.61z"/>
		<path d="M706.41,195.75l30.13,0.00l0.00,14.32l-30.13,0.00l0.00-14.32z"/>
		<path d="M749.87,184.43l0.00-17.40l21.99-14.22l8.33,0.00l0.00,77.19l-17.59,0.00l0.00-53.80z"/>
		<path d="M848.15,170.87c0.00,8.51-4.12,14.13-9.92,17.50c7.77,3.56,13.57,10.29,13.57,20.87c0.00,13.01-14.32,22.18-28.82,22.18c-14.97,0.00-28.91-9.17-28.91-22.18c0.00-10.57,5.71-17.31,13.47-20.87c-5.89-3.37-10.20-8.98-10.20-17.50c0.00-11.42,12.82-19.46,25.54-19.46c13.19,0.00,25.26,8.05,25.26,19.46z  M831.50,173.39c0.00-4.96-3.46-8.70-8.51-8.70c-4.96,0.00-8.70,3.74-8.70,8.70c0.00,5.15,3.93,8.61,8.70,8.61c4.96,0.00,8.51-3.46,8.51-8.61z  M813.16,206.42c0.00,5.71,3.93,9.82,9.73,9.82c5.61,0.00,9.82-4.12,9.82-9.82c0.00-5.80-4.40-9.82-9.82-9.82c-5.52,0.00-9.73,4.02-9.73,9.82z"/>
		<path d="M917.43,170.87c0.00,8.51-4.12,14.13-9.92,17.50c7.77,3.56,13.57,10.29,13.57,20.87c0.00,13.01-14.32,22.18-28.82,22.18c-14.97,0.00-28.91-9.17-28.91-22.18c0.00-10.57,5.71-17.31,13.47-20.87c-5.89-3.37-10.20-8.98-10.20-17.50c0.00-11.42,12.82-19.46,25.54-19.46c13.19,0.00,25.26,8.05,25.26,19.46z  M900.78,173.39c0.00-4.96-3.46-8.70-8.51-8.70c-4.96,0.00-8.70,3.74-8.70,8.70c0.00,5.15,3.93,8.61,8.70,8.61c4.96,0.00,8.51-3.46,8.51-8.61z  M882.44,206.42c0.00,5.71,3.93,9.82,9.73,9.82c5.61,0.00,9.82-4.12,9.82-9.82c0.00-5.80-4.40-9.82-9.82-9.82c-5.52,0.00-9.73,4.02-9.73,9.82z"/>
		<path d="M996.07,152.81l0.00,5.15l-40.80,72.05l-20.77,0.00l35.56-61.75l-33.22,0.00l0.00-15.44l59.23,0.00z"/>
	</g>
	<g aria-label="EDWARD BELLAMY">
		<path d="M370.06,332.11l0.00,11.58l-19.93,0.00l0.00,11.51l19.09,0.00l0.00,11.58l-19.09,0.00l0.00,11.65l19.93,0.00l0.00,11.58l-33.12,0.00l0.00-57.89l33.12,0.00z"/>
		<path d="M382.64,332.11l16.77,0.00c15.86,0.00,29.19,12.07,29.19,28.91c0.00,16.91-13.26,28.98-29.19,28.98l-16.77,0.00l0.00-57.89z  M395.83,378.21l2.04,0.00c9.75,0.00,16.42-7.44,16.49-17.12c0.00-9.68-6.67-17.19-16.49-17.19l-2.04,0.00l0.00,34.32z"/>
		<path d="M477.89,390.00l-9.26-32.49l-9.26,32.49l-14.67,0.00l-16.49-57.89l14.67,0.00l9.89,39.72l0.35,0.00l10.53-39.72l9.96,0.00l10.53,39.72l0.35,0.00l9.89-39.72l14.60,0.00l-16.49,57.89l-14.60,0.00z"/>
		<path d="M540.15,332.11l23.37,57.89l-14.18,0.00l-4.28-11.58l-22.04,0.00l-4.28,11.58l-14.18,0.00l23.37-57.89l12.21,0.00z  M540.57,366.84l-6.46-16.84l-0.14,0.00l-6.46,16.84l13.05,0.00z"/>
		<path d="M570.76,332.11l20.70,0.00c10.74,0.00,18.88,5.82,18.88,17.19c0.00,8.70-4.77,14.53-11.86,16.77l19.93,23.93l-16.77,0.00l-17.68-22.88l0.00,22.88l-13.19,0.00l0.00-57.89z  M583.96,357.79l1.54,0.00c4.98,0.00,10.95-0.35,10.95-7.58s-5.96-7.58-10.95-7.58l-1.54,0.00l0.00,15.16z"/>
		<path d="M626.01,332.11l16.77,0.00c15.86,0.00,29.19,12.07,29.19,28.91c0.00,16.91-13.26,28.98-29.19,28.98l-16.77,0.00l0.00-57.89z  M639.20,378.21l2.04,0.00c9.75,0.00,16.42-7.44,16.49-17.12c0.00-9.68-6.67-17.19-16.49-17.19l-2.04,0.00l0.00,34.32z"/>
		<path d="M706.96,332.11l17.96,0.00c9.96,0.00,17.82,3.72,17.82,14.74c0.00,5.33-2.32,9.89-7.23,12.42c7.23,1.26,12.35,5.26,12.35,14.60c0.00,9.54-6.95,16.14-18.95,16.14l-21.96,0.00l0.00-57.89z  M720.15,354.77l1.05,0.00c5.68,0.00,8.77-1.75,8.77-6.60c0.00-4.14-3.02-5.89-8.77-5.89l-1.05,0.00l0.00,12.49z  M720.15,379.82l4.14,0.00c6.25,0.00,9.68-1.89,9.68-6.46c0.00-5.33-3.44-7.23-9.68-7.23l-4.14,0.00l0.00,13.68z"/>
		<path d="M791.82,332.11l0.00,11.58l-19.93,0.00l0.00,11.51l19.09,0.00l0.00,11.58l-19.09,0.00l0.00,11.65l19.93,0.00l0.00,11.58l-33.12,0.00l0.00-57.89l33.12,0.00z"/>
		<path d="M817.59,332.11l0.00,46.32l19.93,0.00l0.00,11.58l-33.12,0.00l0.00-57.89l13.19,0.00z"/>
		<path d="M862.24,332.11l0.00,46.32l19.93,0.00l0.00,11.58l-33.12,0.00l0.00-57.89l13.19,0.00z"/>
		<path d="M924.15,332.11l23.37,57.89l-14.18,0.00l-4.28-11.58l-22.04,0.00l-4.28,11.58l-14.18,0.00l23.37-57.89l12.21,0.00z  M924.57,366.84l-6.46-16.84l-0.14,0.00l-6.46,16.84l13.05,0.00z"/>
		<path d="M1002.62,390.00l-2.74-34.32l-0.35,0.00l-11.86,33.96l-7.86,0.00l-11.86-33.96l-0.35,0.00l-2.74,34.32l-13.19,0.00l5.19-57.89l14.04,0.00l12.84,33.40l12.84-33.40l14.04,0.00l5.19,57.89l-13.19,0.00z"/>
		<path d="M1013.52,332.11l15.86,0.00l12.07,18.53l12.07-18.53l15.86,0.00l-21.33,31.93l0.00,25.96l-13.19,0.00l0.00-25.96z"/>
	</g>
</svg>
